<?xml version="1.0" encoding="UTF-8" standalone="no"?>
<svg width="530px" height="51px" viewBox="0 0 530 51" version="1.1" xmlns="http://www.w3.org/2000/svg" xmlns:xlink="http://www.w3.org/1999/xlink">
    <!-- Generator: Sketch 3.7.2 (28276) - http://www.bohemiancoding.com/sketch -->
    <title>icon-sprite</title>
    <desc>Created with Sketch.</desc>
    <defs></defs>
    <g id="Page-1" stroke="none" stroke-width="1" fill="none" fill-rule="evenodd">
        <g id="envelope">
            <g id="icon-envelop">
                <path d="M34.2594828,7.75862069 L26.6043103,0.631896552 C25.7,-0.209482759 24.2991379,-0.209482759 23.3948276,0.631896552 L15.7405172,7.75862069 L34.2594828,7.75862069 L34.2594828,7.75862069 Z" id="Shape" fill="#C64645"></path>
                <polygon id="Shape" fill="#F2ECBF" points="44.8275862 7.75862069 5.17241379 7.75862069 5.17241379 26.3543103 18.1034483 36.2068966 31.8965517 36.2068966 44.8275862 26.3543103"></polygon>
                <path d="M27.5862069,15.5172414 L22.4137931,15.5172414 C21.937069,15.5172414 21.5517241,15.1318966 21.5517241,14.6551724 C21.5517241,14.1784483 21.937069,13.7931034 22.4137931,13.7931034 L27.5862069,13.7931034 C28.062931,13.7931034 28.4482759,14.1784483 28.4482759,14.6551724 C28.4482759,15.1318966 28.062931,15.5172414 27.5862069,15.5172414 L27.5862069,15.5172414 Z" id="Shape" fill="#BAB395"></path>
                <path d="M35.3448276,29.3103448 L30.1724138,29.3103448 C29.6956897,29.3103448 29.3103448,28.925 29.3103448,28.4482759 C29.3103448,27.9715517 29.6956897,27.5862069 30.1724138,27.5862069 L35.3448276,27.5862069 C35.8215517,27.5862069 36.2068966,27.9715517 36.2068966,28.4482759 C36.2068966,28.925 35.8215517,29.3103448 35.3448276,29.3103448 L35.3448276,29.3103448 Z" id="Shape" fill="#BAB395"></path>
                <path d="M18.9655172,22.4137931 L14.6551724,22.4137931 C14.1784483,22.4137931 13.7931034,22.0284483 13.7931034,21.5517241 C13.7931034,21.075 14.1784483,20.6896552 14.6551724,20.6896552 L18.9655172,20.6896552 C19.4422414,20.6896552 19.8275862,21.075 19.8275862,21.5517241 C19.8275862,22.0284483 19.4422414,22.4137931 18.9655172,22.4137931 L18.9655172,22.4137931 Z" id="Shape" fill="#BAB395"></path>
                <path d="M31.8965517,22.4137931 L25.862069,22.4137931 C25.3853448,22.4137931 25,22.0284483 25,21.5517241 C25,21.075 25.3853448,20.6896552 25.862069,20.6896552 L31.8965517,20.6896552 C32.3732759,20.6896552 32.7586207,21.075 32.7586207,21.5517241 C32.7586207,22.0284483 32.3732759,22.4137931 31.8965517,22.4137931 L31.8965517,22.4137931 Z" id="Shape" fill="#BAB395"></path>
                <path d="M22.4137931,22.4137931 C22.1896552,22.4137931 21.9646552,22.3189655 21.8017241,22.1637931 C21.6456897,21.9991379 21.5517241,21.775 21.5517241,21.5517241 C21.5517241,21.3181034 21.6456897,21.0948276 21.8017241,20.9396552 C22.1206897,20.6206897 22.7068966,20.6206897 23.0258621,20.9396552 C23.1810345,21.1025862 23.2758621,21.3181034 23.2758621,21.5517241 C23.2758621,21.7758621 23.1810345,22 23.0258621,22.1637931 C22.862069,22.3181034 22.637931,22.4137931 22.4137931,22.4137931 L22.4137931,22.4137931 Z" id="Shape" fill="#BAB395"></path>
                <path d="M26.7241379,29.3103448 L18.1034483,29.3103448 C17.6267241,29.3103448 17.2413793,28.925 17.2413793,28.4482759 C17.2413793,27.9715517 17.6267241,27.5862069 18.1034483,27.5862069 L26.7241379,27.5862069 C27.2008621,27.5862069 27.5862069,27.9715517 27.5862069,28.4482759 C27.5862069,28.925 27.2008621,29.3103448 26.7241379,29.3103448 L26.7241379,29.3103448 Z" id="Shape" fill="#BAB395"></path>
                <path d="M14.6551724,29.3103448 C14.4310345,29.3103448 14.2060345,29.2155172 14.0431034,29.0603448 C13.8793103,28.8956897 13.7931034,28.6715517 13.7931034,28.4482759 C13.7931034,28.225 13.8793103,27.9991379 14.0431034,27.8362069 C14.362069,27.5172414 14.9482759,27.5172414 15.2672414,27.8362069 C15.4224138,27.9991379 15.5172414,28.2241379 15.5172414,28.4482759 C15.5172414,28.6724138 15.4224138,28.8965517 15.2672414,29.0603448 C15.1034483,29.2146552 14.887931,29.3103448 14.6551724,29.3103448 L14.6551724,29.3103448 Z" id="Shape" fill="#BAB395"></path>
                <path d="M35.3448276,22.4137931 C35.1206897,22.4137931 34.8956897,22.3189655 34.7327586,22.1637931 C34.5689655,21.9991379 34.4827586,21.775 34.4827586,21.5517241 C34.4827586,21.3181034 34.5767241,21.1025862 34.7327586,20.9396552 C35.0517241,20.6206897 35.6293103,20.6206897 35.9568966,20.9396552 C36.112069,21.1025862 36.2068966,21.3181034 36.2068966,21.5517241 C36.2068966,21.7758621 36.112069,22 35.9568966,22.1637931 C35.7931034,22.3181034 35.5689655,22.4137931 35.3448276,22.4137931 L35.3448276,22.4137931 Z" id="Shape" fill="#BAB395"></path>
                <polygon id="Shape" fill="#C64645" points="5.26465517 26.425 5.17241379 26.3543103 5.17241379 17.5974138 0 22.412931 0 22.4137931"></polygon>
                <polygon id="Shape" fill="#C64645" points="44.8275862 17.5974138 44.8275862 26.3543103 44.6482759 26.4905172 44.6491379 26.4905172 50 22.4137931 50 22.412931"></polygon>
                <polygon id="Shape" fill="#ED7161" points="0 50 0.111206897 50 49.6043103 50 49.8887931 50 50 50 31.8965517 36.2068966 18.1034483 36.2068966"></polygon>
                <polygon id="Shape" fill="#D75A4A" points="0 50 0 22.4137931 18.1034483 36.2068966"></polygon>
                <polygon id="Shape" fill="#E95853" points="50 50 50 22.4137931 31.8965517 36.2068966"></polygon>
            </g>
            <g id="icon-happy1" transform="translate(240.000000, 0.000000)">
                <path d="M44.6414063,23.2307933 C44.6414063,34.0177588 35.8973105,42.7617188 25.1104808,42.7617188 C14.3236511,42.7617188 5.57890625,34.0177588 5.57890625,23.2307933 C5.57890625,12.4438279 14.3236511,3.69921875 25.1104808,3.69921875 C35.8973105,3.69921875 44.6414063,12.4438279 44.6414063,23.2307933 L44.6414063,23.2307933 Z" id="path-1_28_" fill="#EDC951"></path>
                <path d="M41.325,16.4179688 C40.584375,16.4179688 39.9039063,17.3367187 39.3523438,17.746875 C38.8015625,17.3367188 38.1203125,16.4179688 37.3804688,16.4179688 C35.5523438,16.4179688 34.0695313,17.9 34.0695313,19.728125 C34.0695313,21.55625 38.8015625,26.9539063 39.3523438,26.54375 C39.9039063,26.9539062 44.6351563,21.55625 44.6351563,19.728125 C44.6351563,17.9 43.153125,16.4179688 41.325,16.4179688 L41.325,16.4179688 Z" id="path-2_28_" fill="#E56A77"></path>
                <path d="M22.5054687,16.4179688 C21.765625,16.4179688 21.084375,17.3367187 20.5328125,17.746875 C19.9820313,17.3367188 19.3007812,16.4179688 18.5609375,16.4179688 C16.7328125,16.4179688 15.2507813,17.9 15.2507813,19.728125 C15.2507813,21.55625 19.9820313,26.9539063 20.5328125,26.54375 C21.084375,26.9539062 25.815625,21.55625 25.815625,19.728125 C25.815625,17.9 24.3335937,16.4179688 22.5054687,16.4179688 L22.5054687,16.4179688 Z" id="path-3_28_" fill="#E56A77"></path>
                <path d="M26.8539062,40.0210937 L22.9046875,40.0210937 C17.8179687,40.0210937 13.8335937,36.1140625 13.8335937,31.1257812 C13.8335937,30.478125 14.3578125,29.9539062 15.0054687,29.9539062 C15.6523437,29.9539062 16.1773437,30.478125 16.1773437,31.1257812 C16.1773437,34.8 19.1320312,37.678125 22.9046875,37.678125 L26.8539062,37.678125 C30.6890625,37.678125 33.5804687,34.9359375 33.5804687,31.2992187 C33.5804687,30.6515625 34.1054687,30.1273437 34.753125,30.1273437 C35.4,30.1273437 35.925,30.6515625 35.925,31.2992187 C35.925,36.1898438 31.9398438,40.0210937 26.8539062,40.0210937 L26.8539062,40.0210937 Z" id="path-4_28_" fill="#000000"></path>
                <path d="M35.0289062,25.534375 C34.9992188,25.5351562 34.9726562,25.5335938 34.9445313,25.5320313 C34.9195313,25.5335938 34.89375,25.534375 34.8679688,25.534375 C33.1398438,25.534375 28.490625,19.6953125 28.490625,17.5242187 C28.490625,15.053125 30.5015625,13.0421875 32.9726562,13.0421875 C33.7929688,13.0421875 34.4398438,13.5164062 34.9445313,13.96875 C35.45,13.5164062 36.096875,13.0421875 36.9171875,13.0421875 C39.3882812,13.0421875 41.3992188,15.053125 41.3992188,17.5242187 C41.3992188,18.8796875 40.0085938,20.8914062 38.8414063,22.3390625 C36.2882812,25.5085938 35.3765625,25.534375 35.0289062,25.534375 L35.0289062,25.534375 Z M32.9242188,15.38125 C31.79375,15.3859375 30.834375,16.3453125 30.834375,17.5242187 C30.8703125,18.4984375 33.715625,22.153125 34.9445313,23.090625 C36.1734375,22.153125 39.01875,18.4984375 39.0554688,17.521875 C39.0554688,16.3453125 38.0960938,15.3859375 36.9171875,15.3859375 C36.8101563,15.4257812 36.4445313,15.7710937 36.2484375,15.95625 C36.0367187,16.1554687 35.8328125,16.34375 35.6445312,16.4835937 C35.228125,16.7929688 34.6609375,16.7929688 34.2453125,16.4835937 C34.05625,16.34375 33.853125,16.1554687 33.640625,15.95625 C33.4445312,15.7703125 33.0789063,15.4257813 32.9242188,15.38125 L32.9242188,15.38125 Z" id="path-5_28_" fill="#000000"></path>
                <path d="M16.209375,25.534375 C16.18125,25.5351562 16.153125,25.5335938 16.125,25.5320313 C16.1,25.5335938 16.0742188,25.534375 16.0492188,25.534375 C14.3203125,25.534375 9.67109375,19.6953125 9.67109375,17.5242187 C9.67109375,15.053125 11.6820313,13.0421875 14.153125,13.0421875 C14.9734375,13.0421875 15.6203125,13.5164062 16.125,13.96875 C16.6304688,13.5171875 17.2773438,13.0421875 18.0976563,13.0421875 C20.56875,13.0421875 22.5796875,15.053125 22.5796875,17.5242187 C22.5796875,18.8796875 21.1890625,20.8914062 20.021875,22.3390625 C17.46875,25.5085938 16.5570313,25.534375 16.209375,25.534375 L16.209375,25.534375 Z M14.1046875,15.38125 C12.9742188,15.3859375 12.0148438,16.3453125 12.0148438,17.5242187 C12.0507813,18.4984375 14.8960938,22.153125 16.125,23.090625 C17.3546875,22.153125 20.2,18.4984375 20.2359375,17.521875 C20.2359375,16.3453125 19.2765625,15.3859375 18.0976563,15.3859375 C17.990625,15.4257812 17.6257813,15.7703125 17.4296875,15.9554687 C17.2171875,16.1554687 17.0132813,16.34375 16.8242188,16.4835937 C16.409375,16.7929687 15.8414063,16.7921875 15.4257813,16.4835937 C15.2375,16.34375 15.0335938,16.1554687 14.8210938,15.95625 C14.625,15.7703125 14.2601563,15.4257813 14.1046875,15.38125 L14.1046875,15.38125 Z" id="path-6_23_" fill="#000000"></path>
                <path d="M24.6789062,49.6765625 C11.0710937,49.6765625 0,38.6070312 0,25 C0,11.39375 11.0710937,0.3234375 24.6789062,0.3234375 C38.2867187,0.3234375 49.3578125,11.39375 49.3578125,25 C49.3578125,38.6070312 38.2867187,49.6765625 24.6789062,49.6765625 L24.6789062,49.6765625 Z M24.6789062,2.6671875 C12.3632812,2.6671875 2.34375,12.6859375 2.34375,25 C2.34375,37.3148437 12.3632812,47.3328125 24.6789062,47.3328125 C36.9945312,47.3328125 47.0140625,37.3148437 47.0140625,25 C47.0140625,12.6859375 36.9945313,2.6671875 24.6789062,2.6671875 L24.6789062,2.6671875 Z" id="path-7_22_" fill="#000000"></path>
            </g>
            <g id="icon-heart" transform="translate(180.000000, 0.000000)" fill="#E64C3C">
                <path d="M24.9770253,50.4602244 C38.5108933,40.2132084 45.2817102,30.8403283 48.4656422,23.6909516 C52.1854066,15.3375936 48.9497034,4.98244652 40.8336968,1.50771131 C31.2939809,-2.57492082 24.9770253,6.84430124 24.9770253,6.84430124 C24.9770253,6.84430124 18.7049382,-2.59945478 9.16608513,1.48499469 C1.0500786,4.9597299 -2.18562462,15.314877 1.5341398,23.6682349 C4.71807177,30.816703 11.4431573,40.2141171 24.9770253,50.4602244 L24.9770253,50.4602244 Z" id="Shape"></path>
            </g>
            <g id="icon-linkedin" transform="translate(60.000000, 0.000000)">
                <rect id="Rectangle-path" fill="#0084B1" x="0" y="0" width="49.9705044" height="49.9705044"></rect>
                <g id="Group" transform="translate(7.456140, 7.565789)" fill="#FFFFFF">
                    <path d="M4.30427632,0.0235745614 C6.59298246,0.0254385965 8.48059211,1.91578947 8.47565789,4.21589912 C8.47017544,6.62434211 6.47149123,8.43958333 4.27609649,8.3872807 C2.04934211,8.43234649 0.0924342105,6.57247807 0.092872807,4.2 C0.092872807,1.89901316 1.98782895,0.0218201754 4.30427632,0.0235745614 L4.30427632,0.0235745614 Z" id="Shape"></path>
                    <path d="M6.73585526,34.8104167 L1.83223684,34.8104167 C1.19583333,34.8104167 0.679934211,34.2945175 0.679934211,33.658114 L0.679934211,12.7390351 C0.679934211,12.1026316 1.19583333,11.5867325 1.83223684,11.5867325 L6.73585526,11.5867325 C7.37225877,11.5867325 7.88815789,12.1026316 7.88815789,12.7390351 L7.88815789,33.6582237 C7.88804825,34.2945175 7.37225877,34.8104167 6.73585526,34.8104167 L6.73585526,34.8104167 Z" id="Shape"></path>
                    <path d="M34.9653509,18.9344298 C34.9653509,14.5489035 31.4101974,10.9936404 27.0245614,10.9936404 L25.766886,10.9936404 C23.3675439,10.9936404 21.247807,12.1907895 19.972807,14.020614 C19.8337719,14.2200658 19.7050439,14.427193 19.5868421,14.6410088 C19.545943,14.6348684 19.5217105,14.6316886 19.5211623,14.6327851 L19.5211623,12.0650219 C19.5211623,11.8008772 19.3070175,11.5866228 19.0427632,11.5866228 L12.9248904,11.5866228 C12.6607456,11.5866228 12.4464912,11.8007675 12.4464912,12.0650219 L12.4464912,34.3322368 C12.4464912,34.5963816 12.6605263,34.8105263 12.9246711,34.810636 L19.1758772,34.8121711 C19.4401316,34.8122807 19.654386,34.5980263 19.654386,34.3337719 L19.654386,21.4694079 C19.654386,19.2457237 21.4279605,17.3993421 23.6515351,17.3742325 C24.7866228,17.3614035 25.8156798,17.8162281 26.5573465,18.5583333 C27.2892544,19.2898026 27.7417763,20.3012061 27.7417763,21.4178728 L27.7417763,34.3354167 C27.7417763,34.5995614 27.9559211,34.8137061 28.2199561,34.8138158 L34.4866228,34.8153509 C34.7508772,34.8154605 34.9651316,34.6012061 34.9651316,34.3369518 L34.9651316,18.9344298 L34.9653509,18.9344298 Z" id="Shape"></path>
                </g>
            </g>
            <g id="icon-happy2" transform="translate(300.000000, 0.000000)">
                <path d="M49.5007353,26.7853846 C49.5007353,39.5669231 39.5948529,49.9276923 27.3757353,49.9276923 C15.1566176,49.9276923 5.25073529,39.5669231 5.25073529,26.7853846 C5.25073529,14.0038462 15.1566176,3.64230769 27.3757353,3.64230769 C39.5948529,3.64230769 49.5007353,14.0038462 49.5007353,26.7853846 L49.5007353,26.7853846 Z" id="path-1_27_" fill="#EDC951"></path>
                <path d="M39.4441176,32.4838462 C39.4441176,37.8676923 35.4198529,41.7130769 30.4544118,41.7130769 L25.9595588,41.7130769 C20.9948529,41.7130769 16.9698529,37.8676923 16.9698529,32.4838462 L39.4441176,32.4838462 L39.4441176,32.4838462 Z" id="path-2_27_" fill="#8B71B5"></path>
                <path d="M39.5852941,16.1653846 C38.8889706,16.1653846 38.2477941,17.07 37.7294118,17.4738462 C37.2102941,17.07 36.5698529,16.1653846 35.8727941,16.1653846 C34.1522059,16.1653846 32.7573529,17.6246154 32.7573529,19.4246154 C32.7573529,21.2246154 37.2102941,26.5392308 37.7294118,26.1353846 C38.2477941,26.5392308 42.7007353,21.2246154 42.7007353,19.4246154 C42.7007353,17.6246154 41.3058824,16.1653846 39.5852941,16.1653846 L39.5852941,16.1653846 Z" id="path-3_27_" fill="#E56A77"></path>
                <path d="M21.8727941,16.1653846 C21.1764706,16.1653846 20.5360294,17.07 20.0169118,17.4738462 C19.4977941,17.07 18.8573529,16.1653846 18.1610294,16.1653846 C16.4397059,16.1653846 15.0448529,17.6246154 15.0448529,19.4246154 C15.0448529,21.2246154 19.4977941,26.5392308 20.0169118,26.1353846 C20.5360294,26.5392308 24.9882353,21.2246154 24.9882353,19.4246154 C24.9882353,17.6246154 23.5933824,16.1653846 21.8727941,16.1653846 L21.8727941,16.1653846 Z" id="path-4_27_" fill="#E56A77"></path>
                <path d="M25.6147059,40.1746154 L21.1198529,40.1746154 C15.5551471,40.1746154 11.0272059,35.8623077 11.0272059,30.5607692 C11.0272059,29.9230769 11.5213235,29.4069231 12.1301471,29.4069231 L34.6044118,29.4069231 C35.2139706,29.4069231 35.7073529,29.9230769 35.7073529,30.5607692 C35.7073529,35.8623077 31.1801471,40.1746154 25.6147059,40.1746154 L25.6147059,40.1746154 Z M13.3316176,31.7146154 C13.9301471,35.1969231 17.1948529,37.8676923 21.1198529,37.8676923 L25.6147059,37.8676923 C29.5404412,37.8676923 32.8051471,35.1969231 33.4036765,31.7146154 L13.3316176,31.7146154 L13.3316176,31.7146154 Z" id="path-5_27_" fill="#000000"></path>
                <path d="M32.9691176,25.1415385 C32.9411765,25.1423077 32.9154412,25.1407692 32.8897059,25.1392308 C32.8661765,25.1407692 32.8419118,25.1415385 32.8176471,25.1415385 C32.4970588,25.1415385 31.6448529,25.1415385 29.2213235,21.9953846 C28.1235294,20.5692308 26.8147059,18.5892308 26.8147059,17.2546154 C26.8147059,14.8215385 28.7073529,12.8415385 31.0330882,12.8415385 C31.8051471,12.8415385 32.4139706,13.3092308 32.8897059,13.7538462 C33.3647059,13.3092308 33.9735294,12.8415385 34.7455882,12.8415385 C37.0713235,12.8415385 38.9639706,14.8215385 38.9639706,17.2546154 C38.9639706,18.5892308 37.6551471,20.5692308 36.5573529,21.9953846 C34.1544118,25.1161538 33.2963235,25.1415385 32.9691176,25.1415385 L32.9691176,25.1415385 Z M30.9875,15.1446154 C29.9235294,15.1492308 29.0205882,16.0938462 29.0205882,17.2546154 C29.0544118,18.2146154 31.7330882,21.8123077 32.8897059,22.7353846 C34.0463235,21.8123077 36.7242647,18.2138462 36.7580882,17.2523077 C36.7580882,16.0938462 35.8551471,15.1492308 34.7455882,15.1492308 C34.6448529,15.1884615 34.3014706,15.5276923 34.1169118,15.7107692 C33.9169118,15.9069231 33.7257353,16.0923077 33.5477941,16.23 C33.1573529,16.5338462 32.6220588,16.5346154 32.2316176,16.23 C32.0536765,16.0923077 31.8617647,15.9069231 31.6617647,15.71 C31.4772059,15.5284615 31.1338235,15.1892308 30.9875,15.1446154 L30.9875,15.1446154 Z" id="path-6_22_" fill="#000000"></path>
                <path d="M15.2566176,25.1415385 C15.2294118,25.1423077 15.2036765,25.1407692 15.1772059,25.1392308 C15.1536765,25.1407692 15.1294118,25.1415385 15.1051471,25.1415385 C14.7845588,25.1415385 13.9323529,25.1415385 11.5095588,21.9953846 C10.4110294,20.5692308 9.10220588,18.5892308 9.10220588,17.2546154 C9.10220588,14.8215385 10.9948529,12.8415385 13.3213235,12.8415385 C14.0926471,12.8415385 14.7014706,13.3092308 15.1772059,13.7538462 C15.6522059,13.3084615 16.2617647,12.8415385 17.0330882,12.8415385 C19.3588235,12.8415385 21.2514706,14.8215385 21.2514706,17.2546154 C21.2514706,18.5892308 19.9426471,20.5692308 18.8448529,21.9953846 C16.4419118,25.1161538 15.5838235,25.1415385 15.2566176,25.1415385 L15.2566176,25.1415385 Z M13.275,15.1446154 C12.2110294,15.1492308 11.3080882,16.0938462 11.3080882,17.2546154 C11.3426471,18.2146154 14.0205882,21.8123077 15.1772059,22.7353846 C16.3338235,21.8123077 19.0117647,18.2138462 19.0455882,17.2523077 C19.0455882,16.0938462 18.1426471,15.1492308 17.0330882,15.1492308 C16.9330882,15.1884615 16.5889706,15.5276923 16.4044118,15.7107692 C16.2044118,15.9069231 16.0132353,16.0923077 15.8352941,16.23 C15.4448529,16.5338462 14.9102941,16.5346154 14.5191176,16.23 C14.3411765,16.0923077 14.1492647,15.9069231 13.95,15.71 C13.7647059,15.5284615 13.4213235,15.1892308 13.275,15.1446154 L13.275,15.1446154 Z" id="path-7_21_" fill="#000000"></path>
                <path d="M23.2272059,48.9130769 C10.4198529,48.9130769 0,38.0130769 0,24.6153846 C0,11.2184615 10.4198529,0.318461538 23.2272059,0.318461538 C36.0352941,0.318461538 46.4551471,11.2184615 46.4551471,24.6153846 C46.4551471,38.0130769 36.0352941,48.9130769 23.2272059,48.9130769 L23.2272059,48.9130769 Z M23.2272059,2.62615385 C11.6360294,2.62615385 2.20588235,12.4907692 2.20588235,24.6153846 C2.20588235,36.7407692 11.6360294,46.6046154 23.2272059,46.6046154 C34.8183824,46.6046154 44.2492647,36.7407692 44.2492647,24.6153846 C44.2492647,12.4907692 34.8183824,2.62615385 23.2272059,2.62615385 L23.2272059,2.62615385 Z" id="path-8_14_" fill="#000000"></path>
            </g>
            <g id="icon-in-love" transform="translate(360.000000, 0.000000)">
                <circle id="Oval" fill="#FBD971" cx="25" cy="25" r="25"></circle>
                <path d="M38.0952381,28.5714286 C38.0952381,35.8035714 32.2321429,41.6666667 25,41.6666667 C17.7678571,41.6666667 11.9047619,35.8035714 11.9047619,28.5714286 L38.0952381,28.5714286 L38.0952381,28.5714286 Z" id="Shape" fill="#802D40"></path>
                <rect id="Rectangle-path" fill="#ECF0F1" x="20.2380952" y="28.5714286" width="4.76190476" height="7.14285714"></rect>
                <rect id="Rectangle-path" fill="#ECF0F1" x="25" y="28.5714286" width="4.76190476" height="4.76190476"></rect>
                <path d="M14.9345238,12.7404762 C15.4559524,11.547619 16.6452381,10.7142857 18.0309524,10.7142857 C19.8964286,10.7142857 21.2392857,12.2547619 21.4083333,14.0916667 C21.4083333,14.0916667 21.5,14.547619 21.2988095,15.3678571 C21.0261905,16.4857143 20.3833333,17.4785714 19.5178571,18.2357143 L14.9345238,22.1845238 L10.4285714,18.2369048 C9.56309524,17.4797619 8.9202381,16.4857143 8.64761905,15.3690476 C8.44642857,14.5488095 8.53809524,14.0928571 8.53809524,14.0928571 C8.70714286,12.2547619 10.05,10.7142857 11.9154762,10.7142857 C13.3,10.7142857 14.4130952,11.547619 14.9345238,12.7404762 L14.9345238,12.7404762 Z" id="Shape" fill="#E64C3C"></path>
                <path d="M34.9880952,12.7404762 C35.5095238,11.547619 36.7,10.7142857 38.0845238,10.7142857 C39.95,10.7142857 41.2928571,12.2547619 41.4619048,14.0916667 C41.4619048,14.0916667 41.5535714,14.547619 41.352381,15.3678571 C41.0797619,16.4857143 40.4369048,17.4785714 39.5714286,18.2357143 L34.9880952,22.1845238 L30.4821429,18.2357143 C29.6166667,17.4785714 28.9738095,16.4845238 28.7011905,15.3678571 C28.5,14.547619 28.5916667,14.0916667 28.5916667,14.0916667 C28.7607143,12.2547619 30.1047619,10.7142857 31.9690476,10.7142857 C33.3547619,10.7142857 34.4666667,11.547619 34.9880952,12.7404762 L34.9880952,12.7404762 Z" id="Shape" fill="#E64C3C"></path>
            </g>
            <g id="icon-github" transform="translate(120.000000, 0.000000)" fill="#000000">
                <path d="M46.5981777,12.7707459 C44.3649203,8.85512821 41.3356492,5.75512821 37.5095672,3.47004662 C33.6829157,1.18484848 29.5053531,0.0425407925 24.973918,0.0425407925 C20.4430524,0.0425407925 16.264123,1.18519814 12.4382688,3.47004662 C8.6118451,5.75501166 5.58268793,8.85512821 3.34943052,12.7707459 C1.11651481,16.6862471 0,20.9620047 0,25.5979021 C0,31.1666667 1.58769932,36.1742424 4.76389522,40.6219114 C7.93974943,45.0699301 12.0424829,48.1477855 17.071754,49.8558275 C17.6571754,49.9670163 18.0905467,49.8888112 18.3723235,49.6231935 C18.6542141,49.3572261 18.7949886,49.0241259 18.7949886,48.6252914 C18.7949886,48.5587413 18.7894077,47.9600233 18.7785877,46.8284382 C18.767426,45.6968531 18.7621868,44.7096737 18.7621868,43.867366 L18.0142369,43.9997669 C17.5373576,44.0891608 16.9357631,44.1270396 16.2094533,44.116317 C15.4834852,44.1059441 14.7298405,44.0280886 13.9495444,43.8833333 C13.1689066,43.7398601 12.4428246,43.4071096 11.7707289,42.8857809 C11.0989749,42.3644522 10.6220957,41.6820513 10.340205,40.839627 L10.0150342,40.0738928 C9.79829157,39.5641026 9.4570615,38.9977855 8.99088838,38.3770396 C8.52471526,37.755711 8.05330296,37.3344988 7.57642369,37.112704 L7.34874715,36.9459207 C7.19703872,36.8350816 7.05626424,36.7013986 6.926082,36.5462704 C6.79601367,36.3911422 6.69863326,36.2358974 6.63359909,36.0804196 C6.56845103,35.9248252 6.62243736,35.7972028 6.79612756,35.6970862 C6.96981777,35.5969697 7.28371298,35.5483683 7.73917995,35.5483683 L8.38929385,35.6477855 C8.82289294,35.7367133 9.35922551,36.002331 9.99897494,36.4462704 C10.6383827,36.8898601 11.1640091,37.4665501 11.5759681,38.1761072 C12.0748292,39.0858974 12.6758542,39.7791375 13.3807517,40.2561772 C14.0850797,40.7332168 14.7952164,40.9713287 15.5104784,40.9713287 C16.2257403,40.9713287 16.843508,40.9158508 17.3640091,40.8054779 C17.8839408,40.6945221 18.371754,40.5277389 18.827221,40.3060606 C19.0223235,38.8191142 19.5535308,37.6768065 20.4203872,36.8783217 C19.1848519,36.7454545 18.0740319,36.545338 17.0873576,36.2792541 C16.1012528,36.0128205 15.0822323,35.5804196 14.0309795,34.9808858 C12.9791572,34.3821678 12.1066059,33.6386946 11.4130979,32.7517483 C10.7194761,31.8643357 10.1502278,30.6993007 9.70615034,29.2576923 C9.2618451,27.8155012 9.03963554,26.1518648 9.03963554,24.266317 C9.03963554,21.5815851 9.89612756,19.2969697 11.6087699,17.4111888 C10.806492,15.3927739 10.8822323,13.1300699 11.8362187,10.62331 C12.4649203,10.4234266 13.3972665,10.5734266 14.6328018,11.0723776 C15.8685649,11.5715618 16.7733485,11.9991841 17.3480638,12.3537296 C17.922779,12.7081585 18.3832574,13.0085082 18.7301822,13.2520979 C20.746697,12.6755245 22.8276765,12.3871795 24.9736902,12.3871795 C27.1197039,12.3871795 29.201139,12.6755245 31.2177677,13.2520979 L32.4534169,12.4538462 C33.2984055,11.9212121 34.2962415,11.4331002 35.444533,10.9893939 C36.593508,10.5459207 37.4720957,10.4237762 38.079385,10.6236597 C39.0545558,13.1305361 39.1414579,15.3931235 38.3389522,17.4115385 C40.0514806,19.2973193 40.9083144,21.5825175 40.9083144,24.2666667 C40.9083144,26.1522145 40.6853075,27.8210956 40.2416856,29.274359 C39.7974943,30.7278555 39.2233485,31.8917249 38.5190205,32.7684149 C37.8138952,33.6449883 36.9357631,34.382634 35.8845103,34.9812354 C34.8330296,35.580303 33.8136674,36.012704 32.8275626,36.2791375 C31.8410023,36.5455711 30.7301822,36.7458042 29.4946469,36.8789044 C30.6215262,37.8768065 31.1850797,39.4519814 31.1850797,41.6037296 L31.1850797,48.624359 C31.1850797,49.0231935 31.320615,49.3561772 31.5919134,49.6222611 C31.8628702,49.8878788 32.2907745,49.9660839 32.8761959,49.8547786 C37.9061503,48.1469697 42.0088838,45.0689977 45.1846241,40.620979 C48.3600228,36.17331 49.9482916,31.1657343 49.9482916,25.5969697 C49.9471526,20.961655 48.8300683,16.6862471 46.5981777,12.7707459 L46.5981777,12.7707459 Z" id="Shape"></path>
            </g>
            <g id="icon-emoticon" transform="translate(420.000000, 0.000000)" fill="#D80027">
                <path d="M49.8901084,22.0105978 C49.8968835,29.9403533 47.8837398,36.3775815 43.5901084,42.0653533 C40.8924119,45.6388587 37.2879404,47.7903533 32.9405149,48.6019022 C29.9605691,49.1581522 26.9394309,49.5134511 23.9253388,49.8585598 C21.902439,50.0902174 19.8872629,49.7453804 18.0047425,49.0285326 C14.895664,47.8447011 11.7605691,46.655163 9.10149051,44.5725543 C7.95176152,43.6720109 6.79295393,42.7216033 5.8701897,41.6017663 C1.95514905,36.8498641 0.0445799458,31.3921196 0.000677506775,25.1793478 C-0.0436314363,18.9154891 2.05,13.4485054 6.01233062,8.81997283 C9.59796748,4.63152174 14.2609756,1.98029891 19.7722222,0.90326087 C23.4100271,0.192391304 27.0493225,-0.116711957 30.7258808,0.252717391 C32.1238482,0.393206522 33.5457995,0.674728261 34.8655827,1.14796196 C39.3506775,2.75611413 43.0791328,5.49755435 46.0765583,9.19538043 C48.0413279,11.6192935 49.0303523,14.497962 49.4724932,17.5528533 C49.7246612,19.2971467 49.8052846,21.066712 49.8901084,22.0105978 L49.8901084,22.0105978 Z M1.85298103,25.1316576 L1.85216802,25.1309783 C1.37303523,26.1961957 1.41802168,27.2732337 1.77466125,28.6024457 C2.66138211,27.5226902 3.43590786,26.5797554 4.35596206,25.459375 C4.33387534,25.8387228 4.3601626,25.9447011 4.31924119,26.0032609 C3.75691057,26.8080163 3.18848238,27.6085598 2.61544715,28.4057065 C1.68590786,29.6983696 1.6895664,30.3195652 2.65460705,31.7474185 C3.29932249,30.9336957 3.94227642,30.1222826 4.58509485,29.3108696 C4.66842818,29.3710598 4.75162602,29.4313859 4.83495935,29.4915761 C4.4102981,30.1203804 4.05094851,30.8084239 3.54715447,31.3652174 C2.54878049,32.4686141 2.68346883,33.519837 3.53387534,34.69375 C4.06355014,34.0002717 4.55406504,33.3349185 5.0696477,32.6896739 C5.58495935,32.0447011 6.12533875,31.419837 6.65487805,30.7861413 C6.74051491,30.857337 6.82615176,30.9285326 6.91192412,30.9995924 C5.85433604,32.4433424 4.79674797,33.8870924 3.70067751,35.383288 C4.0097561,35.8774457 4.28252033,36.3133152 4.58848238,36.8025815 C5.3804878,35.6158967 6.08848238,34.555163 6.79634146,33.4944293 C6.8903794,33.5555707 6.98428184,33.616712 7.07831978,33.6778533 C6.59932249,34.5149457 6.12249322,35.3532609 5.64078591,36.1888587 C4.83346883,37.5891304 4.85271003,37.7283967 6.07926829,38.9322011 C6.85501355,37.7941576 7.62682927,36.6618207 8.39850949,35.5296196 C8.4901084,35.5873641 8.58184282,35.6452446 8.67357724,35.7029891 C7.89457995,37.0255435 7.11558266,38.347962 6.32235772,39.6947011 C6.90420054,40.3633152 7.399729,40.9327446 7.98401084,41.604212 C8.45663957,40.6861413 8.8197832,39.9434783 9.21693767,39.2195652 C9.60867209,38.5057065 10.0348238,37.8108696 10.4457995,37.1077446 C10.5159892,37.1509511 10.5861789,37.1940217 10.6565041,37.2372283 C9.90460705,38.8548913 9.15257453,40.4726902 8.3802168,42.134375 C9.82140921,43.0894022 11.0898374,43.9300272 12.3806233,44.7853261 C12.9879404,43.8544837 13.4891599,43.0860054 13.9905149,42.3175272 C14.0665312,42.3654891 14.1424119,42.413587 14.2184282,42.4615489 C13.7952575,43.3107337 13.3722222,44.1597826 12.9051491,45.0971467 C13.4627371,45.3452446 13.8897019,45.5353261 14.3104336,45.7225543 C15.1155827,44.6033967 15.8638211,43.5631793 16.6120596,42.522962 C16.7132791,42.5898098 16.8143631,42.6565217 16.9155827,42.7232337 C16.2605691,43.7802989 15.6055556,44.8372283 14.8878049,45.9955163 C15.4605691,46.2501359 15.9379404,46.4622283 16.401084,46.6680707 C17.0857724,45.810462 17.7243902,45.010462 18.3630081,44.210462 C18.4356369,44.2695652 18.5081301,44.3286685 18.5807588,44.3877717 C18.0397019,45.1735054 17.4987805,45.9592391 16.9163957,46.8050272 C17.4121951,47.0328804 17.7846883,47.163587 18.1144986,47.364538 C18.7212737,47.734375 19.1161247,47.4816576 19.4661247,46.985462 C19.4799458,46.9657609 19.5901084,47.0144022 19.6479675,47.0293478 C19.5864499,47.2557065 19.5253388,47.4804348 19.4242547,47.852038 C20.7680217,47.9595109 22.0356369,48.2550272 23.2361789,48.0819293 C23.9239837,47.9827446 24.5636856,48.1888587 25.2253388,48.0434783 C25.9392954,47.8865489 26.6821138,47.7245924 27.40271,47.7603261 C29.6069106,47.8695652 31.6921409,47.286413 33.7413279,46.6543478 C36.4857724,45.8078804 39.001897,44.4623641 40.952439,42.2822011 C42.7963415,40.2213315 44.2304878,37.8811141 45.3666667,35.3535326 C47.9930894,29.5111413 48.3565041,23.4008152 47.4418699,17.1672554 C47.0520325,14.5099185 46.0810298,12.0331522 44.3300813,9.94660326 C41.5655827,6.65217391 38.2153117,4.1357337 34.1686992,2.65081522 C32.9909214,2.21861413 31.7124661,1.8982337 30.4672087,1.84728261 C27.6814363,1.73342391 24.8846883,1.74673913 22.0974255,1.84741848 C19.1392954,1.95434783 16.2421409,2.43355978 13.6895664,4.11168478 C12.5434959,4.86521739 11.3588076,5.57404891 10.2891599,6.42608696 C9.2196477,7.27853261 8.18631436,8.21059783 7.29295393,9.24361413 C6.36842818,10.3126359 5.51138211,11.4804348 4.84756098,12.7245924 C4.23184282,13.8786685 3.79607046,15.1315217 3.09850949,16.2577446 C2.8802168,16.6103261 2.81856369,17.060462 2.57100271,17.8131793 C3.67479675,16.7524457 4.52330623,15.9368207 5.37181572,15.1213315 C4.45934959,16.516712 3.40298103,17.7434783 2.40623306,19.0169837 C1.72926829,19.8819293 1.68915989,20.2076087 1.79078591,21.4044837 C2.1601626,21.0705163 2.50365854,20.7600543 2.84701897,20.4495924 C2.67127371,21.0881793 2.28848238,21.5622283 1.92872629,22.0532609 C1.30108401,22.9100543 1.27411924,24.2866848 1.85298103,25.1316576 L1.85298103,25.1316576 Z" id="Shape"></path>
                <path d="M13.7601626,15.1512228 C14.6655827,13.6077446 16.0455285,12.769837 17.7196477,12.3377717 C19.752439,11.8131793 21.5730352,12.6495924 22.4294038,14.5540761 C23.3670732,16.639538 23.2070461,18.6767663 21.9974255,20.5835598 C21.1589431,21.9052989 20.1891599,23.1436141 19.2724932,24.4152174 C18.5944444,25.3559783 17.7186992,25.9221467 16.5182927,25.6865489 C13.5987805,25.113587 10.6365854,24.664538 8.15081301,22.8043478 C7.07859079,22.0019022 6.37859079,21.01875 6.23387534,19.6476902 C5.83414634,15.8605978 8.94674797,14.0730978 11.746206,14.5798913 C12.3651762,14.6918478 12.9630081,14.9211957 13.7601626,15.1512228 L13.7601626,15.1512228 Z" id="Shape"></path>
                <path d="M36.0382114,13.8404891 C36.748374,12.695788 37.6952575,11.9951087 39.0090786,11.8610054 C40.2373984,11.7355978 41.1948509,12.1737772 41.9299458,13.1680707 C43.3873984,15.1394022 43.5197832,18.1815217 42.1779133,20.2214674 C40.996206,22.0179348 39.2779133,23.2451087 37.5375339,24.4237772 C37.2077236,24.6471467 36.6646341,24.7690217 36.2873984,24.6725543 C33.545393,23.9717391 30.7785908,23.3188859 28.848916,20.9415761 C27.0974255,18.7835598 26.7578591,16.6891304 27.8149051,14.4032609 C28.8689702,12.1237772 31.6338753,11.627038 33.7623306,12.5009511 C34.5178862,12.8108696 35.1873984,13.3311141 36.0382114,13.8404891 L36.0382114,13.8404891 Z" id="Shape"></path>
                <path d="M16.5363144,31.1288043 C15.7391599,31.4616848 15.4574526,32.5057065 14.5357724,31.7432065 C15.0116531,30.7392663 15.4830623,29.7445652 15.9845528,28.686413 C17.0121951,28.7576087 16.5006775,29.6341033 16.7827913,30.289538 C22.7241192,31.163587 28.6185637,30.8480978 34.2212737,28.657337 C34.2921409,27.9911685 34.347832,27.4684783 34.4033875,26.9456522 C34.5220867,26.9 34.6409214,26.8543478 34.7597561,26.8086957 C35.4651762,27.4514946 36.1934959,28.071875 36.8596206,28.753125 C37.0210027,28.9182065 37.0960705,29.3474185 36.9941734,29.5398098 C36.9,29.7177989 36.5219512,29.7831522 36.2575881,29.8240489 C35.7554201,29.9017663 35.245122,29.9266304 34.6570461,29.9809783 C34.7388889,30.7769022 34.7907859,31.3956522 34.8680217,32.0112772 C35.1116531,33.9557065 34.7730352,35.8210598 34.1341463,37.6493207 C33.1631436,40.4283967 31.2711382,42.1947011 28.3666667,42.7118207 C26.4823848,43.0472826 24.5841463,43.0559783 22.6882114,42.5759511 C18.7903794,41.5891304 17.1195122,39.0099185 16.6342818,35.4967391 C16.4808943,34.3865489 16.5611111,33.2436141 16.5372629,32.1157609 C16.5313008,31.8423913 16.5363144,31.56875 16.5363144,31.1288043 L16.5363144,31.1288043 Z M19.4853659,39.0483696 C22.3987805,42.5747283 29.2296748,42.3285326 31.7651762,38.8092391 C31.0402439,38.1911685 30.9892954,36.7396739 29.600813,36.9580163 C28.6165312,37.1127717 27.651897,37.3936141 26.7307588,37.6061141 C26.7159892,38.513587 27.5707317,39.2100543 26.6670732,40.0273098 C26.4111111,39.6650815 26.1724932,39.372962 25.9830623,39.0516304 C25.1352304,37.6131793 24.2873984,37.1991848 22.7062331,37.6922554 C21.6471545,38.0224185 20.6490515,38.5498641 19.4853659,39.0483696 L19.4853659,39.0483696 Z M17.4605691,31.758288 C17.8361789,32.598913 18.3873984,33.1320652 19.2204607,33.3955163 C23.554336,34.7658967 27.7819783,34.6478261 31.8924119,32.5683424 C32.3223577,32.3508152 32.8093496,32.2483696 33.2655827,32.0808424 C33.3920054,32.034375 33.5028455,31.9455163 33.6719512,31.8460598 C33.6334688,31.5991848 33.6147696,31.3577446 33.5525745,31.1282609 C33.5173442,30.9985054 33.4107046,30.8881793 33.2708672,30.664538 C28.1195122,32.1777174 22.8733062,32.6622283 17.4605691,31.758288 L17.4605691,31.758288 Z" id="Shape"></path>
                <path d="M21.6243902,47.2914402 C21.8158537,47.0625 22.0073171,46.8335598 22.1987805,46.6047554 C22.2531165,46.6459239 22.3074526,46.6870924 22.3616531,46.728125 C22.1714092,46.960462 21.9810298,47.1927989 21.7906504,47.4251359 C21.7353659,47.3805707 21.6799458,47.3360054 21.6243902,47.2914402 L21.6243902,47.2914402 Z" id="Shape"></path>
                <path d="M1.85298103,25.1316576 C2.05501355,24.7335598 2.25718157,24.335462 2.45921409,23.9372283 C2.57113821,24.5334239 2.36680217,24.9324728 1.85203252,25.1308424 L1.85298103,25.1316576 L1.85298103,25.1316576 Z" id="Shape"></path>
            </g>
            <g id="icon-location" transform="translate(480.000000, 0.000000)">
                <g id="Group">
                    <path d="M20.0258915,2.3255814 C10.3432558,2.3255814 2.46589147,10.2032558 2.46589147,19.8862016 C2.46589147,23.8626357 5.62155039,30.2832558 11.5910078,38.4533333 C15.0100775,43.1330233 18.4660465,47.1570543 20.0257364,48.9263566 C21.5855814,47.1570543 25.0415504,43.1330233 28.4604651,38.4533333 C34.4300775,30.2832558 37.5852713,23.8627907 37.5852713,19.8862016 C37.5855814,10.2032558 29.7085271,2.3255814 20.0258915,2.3255814 L20.0258915,2.3255814 Z M29.8035659,25.611938 C27.9773643,28.364186 24.8668217,30.8854264 20.5584496,33.1052713 C20.3913178,33.1916279 20.2083721,33.2345736 20.0257364,33.2345736 C19.8427907,33.2345736 19.6603101,33.1916279 19.4930233,33.1052713 C15.1843411,30.8851163 12.0736434,28.363876 10.2472868,25.6116279 C8.2172093,22.5527132 8.2620155,19.9688372 8.65689922,18.3403101 C9.41689922,15.2055814 12.195814,12.9305426 15.2644961,12.9305426 C17.0683721,12.9305426 18.7165891,13.6872868 20.0255814,15.0908527 C21.3342636,13.6872868 22.9824806,12.9305426 24.7863566,12.9305426 C27.8547287,12.9305426 30.6333333,15.2055814 31.3933333,18.3403101 C31.7888372,19.9691473 31.8333333,22.5527132 29.8035659,25.611938 L29.8035659,25.611938 Z" id="Shape" fill="#FFBBD2"></path>
                    <path d="M24.7866667,12.9305426 C22.9827907,12.9305426 21.3345736,13.6872868 20.0258915,15.0908527 C18.7168992,13.6872868 17.0686822,12.9305426 15.2648062,12.9305426 C12.196124,12.9305426 9.4172093,15.2055814 8.6572093,18.3403101 C8.26232558,19.9688372 8.21751938,22.5527132 10.2475969,25.6116279 C12.0737984,28.363876 15.1846512,30.8851163 19.4933333,33.1052713 C19.6604651,33.1916279 19.8431008,33.2345736 20.0260465,33.2345736 C20.2086822,33.2345736 20.3914729,33.1916279 20.5587597,33.1052713 C24.8671318,30.8854264 27.9776744,28.364186 29.803876,25.611938 C31.8336434,22.5527132 31.7891473,19.9691473 31.3939535,18.3403101 C30.6336434,15.2055814 27.8550388,12.9305426 24.7866667,12.9305426 L24.7866667,12.9305426 Z M10.9173643,18.8883721 C11.4275969,16.783876 13.255969,15.256124 15.2648062,15.256124 C16.7325581,15.256124 18.0751938,16.0936434 19.0457364,17.6147287 C19.2592248,17.9493023 19.6289922,18.151938 20.0258915,18.151938 C20.4229457,18.151938 20.7925581,17.9493023 21.0060465,17.6147287 C21.9765891,16.0936434 23.3189147,15.256124 24.7866667,15.256124 C26.7951938,15.256124 28.6232558,16.783876 29.1337984,18.8883721 C30.0782946,22.7837209 26.6817054,27.1953488 20.0258915,30.7582946 C13.3697674,27.1950388 9.97255814,22.7834109 10.9173643,18.8883721 L10.9173643,18.8883721 Z" id="Shape" fill="#3CBCC6"></path>
                    <path d="M20.0258915,0 C9.06108527,0 0.140310078,8.92077519 0.140310078,19.8862016 C0.140310078,30.5553488 18.3916279,50.6083721 19.1683721,51.4568992 C19.3888372,51.6973643 19.699845,51.8345736 20.0258915,51.8345736 C20.352093,51.8345736 20.6632558,51.6973643 20.8834109,51.4568992 C21.6604651,50.6083721 39.9111628,30.5555039 39.9111628,19.8862016 C39.9111628,8.92077519 30.9906977,0 20.0258915,0 L20.0258915,0 Z M37.5855814,19.8862016 C37.5855814,23.8626357 34.4302326,30.2832558 28.4607752,38.4533333 C25.0417054,43.1330233 21.5857364,47.1570543 20.0260465,48.9263566 C18.4662016,47.1570543 15.0102326,43.1330233 11.5913178,38.4533333 C5.62170543,30.2832558 2.46620155,23.8627907 2.46620155,19.8862016 C2.46589147,10.2032558 10.3432558,2.3255814 20.0258915,2.3255814 C29.7085271,2.3255814 37.5855814,10.2032558 37.5855814,19.8862016 L37.5855814,19.8862016 Z" id="Shape" fill="#3CBCC6"></path>
                </g>
            </g>
        </g>
    </g>
</svg>
